{
    "asset" : {
        "generator" : "Khronos glTF Blender I/O v1.7.17",
        "version" : "2.0"
    },
    "scene" : 0,
    "scenes" : [
        {
            "name" : "Scene",
            "nodes" : [
                0
            ]
        }
    ],
    "nodes" : [
        {
            "mesh" : 0,
            "name" : "Room",
            "translation" : [
                0,
                0,
                -4
            ]
        }
    ],
    "materials" : [
        {
            "doubleSided" : true,
            "name" : "Walls_texture",
            "pbrMetallicRoughness" : {
                "baseColorTexture" : {
                    "index" : 0
                },
                "metallicFactor" : 0,
                "roughnessFactor" : 0.5
            }
        },
        {
            "doubleSided" : true,
            "name" : "floor_texture",
            "pbrMetallicRoughness" : {
                "baseColorTexture" : {
                    "index" : 1
                },
                "metallicFactor" : 0,
                "roughnessFactor" : 0.5
            }
        }
    ],
    "meshes" : [
        {
            "name" : "Cube.001",
            "primitives" : [
                {
                    "attributes" : {
                        "POSITION" : 0,
                        "NORMAL" : 1,
                        "TEXCOORD_0" : 2
                    },
                    "indices" : 3,
                    "material" : 0
                },
                {
                    "attributes" : {
                        "POSITION" : 4,
                        "NORMAL" : 5,
                        "TEXCOORD_0" : 6
                    },
                    "indices" : 7,
                    "material" : 1
                }
            ]
        }
    ],
    "textures" : [
        {
            "sampler" : 0,
            "source" : 0
        },
        {
            "sampler" : 0,
            "source" : 0
        }
    ],
    "images" : [
        {
            "bufferView" : 4,
            "mimeType" : "image/png",
            "name" : "all_baked"
        }
    ],
    "accessors" : [
        {
            "bufferView" : 0,
            "componentType" : 5126,
            "count" : 2210,
            "max" : [
                10.153064727783203,
                6.192226886749268,
                15.153064727783203
            ],
            "min" : [
                -10.153064727783203,
                0,
                -15.153064727783203
            ],
            "type" : "VEC3"
        },
        {
            "bufferView" : 1,
            "componentType" : 5126,
            "count" : 2210,
            "type" : "VEC3"
        },
        {
            "bufferView" : 2,
            "componentType" : 5126,
            "count" : 2210,
            "type" : "VEC2"
        },
        {
            "bufferView" : 3,
            "componentType" : 5123,
            "count" : 3360,
            "type" : "SCALAR"
        },
        {
            "bufferView" : 5,
            "componentType" : 5126,
            "count" : 34,
            "max" : [
                10,
                0,
                15
            ],
            "min" : [
                -10,
                0,
                -15
            ],
            "type" : "VEC3"
        },
        {
            "bufferView" : 6,
            "componentType" : 5126,
            "count" : 34,
            "type" : "VEC3"
        },
        {
            "bufferView" : 7,
            "componentType" : 5126,
            "count" : 34,
            "type" : "VEC2"
        },
        {
            "bufferView" : 8,
            "componentType" : 5123,
            "count" : 96,
            "type" : "SCALAR"
        }
    ],
    "bufferViews" : [
        {
            "buffer" : 0,
            "byteLength" : 26520,
            "byteOffset" : 0
        },
        {
            "buffer" : 0,
            "byteLength" : 26520,
            "byteOffset" : 26520
        },
        {
            "buffer" : 0,
            "byteLength" : 17680,
            "byteOffset" : 53040
        },
        {
            "buffer" : 0,
            "byteLength" : 6720,
            "byteOffset" : 70720
        },
        {
            "buffer" : 0,
            "byteLength" : 2780852,
            "byteOffset" : 77440
        },
        {
            "buffer" : 0,
            "byteLength" : 408,
            "byteOffset" : 2858292
        },
        {
            "buffer" : 0,
            "byteLength" : 408,
            "byteOffset" : 2858700
        },
        {
            "buffer" : 0,
            "byteLength" : 272,
            "byteOffset" : 2859108
        },
        {
            "buffer" : 0,
            "byteLength" : 192,
            "byteOffset" : 2859380
        }
    ],
    "samplers" : [
        {
            "magFilter" : 9729,
            "minFilter" : 9987
        }
    ],
    "buffers" : [
        {
            "byteLength" : 2859572,
            "uri" : "data:application/octet-stream;base64,"
        }
    ]
}
